<svg id="Layer_1" data-name="Layer 1" xmlns="http://www.w3.org/2000/svg" viewBox="0 0 192 192"><title>aim-higher_red</title><polygon points="123.4 120.3 126.1 103.1 76.4 103.1 72.2 129.5 22.4 129.5 17.4 159.9 168.1 159.9 174.6 120.3 123.4 120.3" fill="#da1a32"/><polygon points="113.6 32.1 117.9 49.8 136.8 52.7 119.2 66.5 117.7 85.9 102.5 76.7 82.7 85.9 90.9 66.5 80.2 52.7 100.4 49.8 113.6 32.1" fill="#da1a32"/><polygon points="157 72.2 159.6 82.7 170.8 84.4 160.3 92.7 159.4 104.3 150.4 98.8 138.6 104.3 143.5 92.7 137.1 84.4 149.2 82.7 157 72.2" fill="#da1a32"/><polygon points="53.9 81.5 56.5 92 67.7 93.7 57.3 102 56.4 113.6 47.3 108.1 35.5 113.6 40.4 102 34 93.7 46.1 92 53.9 81.5" fill="#da1a32"/></svg>