<svg id="Layer_1" data-name="Layer 1" xmlns="http://www.w3.org/2000/svg" viewBox="0 0 192 192"><title>bottle_blk</title><path d="M64.1,79h63.8V73.7a12.4,12.4,0,0,0-4.3-9.4,7.8,7.8,0,0,1-2.7-5.8,8,8,0,0,1,1.4-4.5l2.2-3a8,8,0,0,0,1.4-4.5V37c0-6-2-6-2-6v-.9A12.1,12.1,0,0,0,111.9,18H103V12.4A4.4,4.4,0,0,0,98.6,8H93.4A4.4,4.4,0,0,0,89,12.4V18H80.1A12.1,12.1,0,0,0,68,30.1V31s-2,0-2,6v9.5A8,8,0,0,0,67.4,51l2.2,3A8,8,0,0,1,71,58.5a7.8,7.8,0,0,1-2.7,5.8A12.4,12.4,0,0,0,64,73.7V79Z"/><polygon points="126.5 105.5 127.3 90.5 64.7 90.5 65.5 105.5 126.5 105.5"/><path d="M125.4,127.4l.5-10.4H66.1l.5,10.4a48,48,0,0,1-.9,13.1A89.6,89.6,0,0,0,64,157.7v9.7a15.1,15.1,0,0,0,13.5,14.9l6.7.6a132.9,132.9,0,0,0,23.6,0l6.7-.6A15.1,15.1,0,0,0,128,167.4v-9.7a89.6,89.6,0,0,0-1.7-17.2A48,48,0,0,1,125.4,127.4Z"/></svg>