<svg id="Layer_1" data-name="Layer 1" xmlns="http://www.w3.org/2000/svg" viewBox="0 0 192 192"><title>changing-room_blk</title><path d="M152.4,115.1,102.2,83.6V81.3a4.2,4.2,0,0,1,2.3-3.6l.6-.4c2.5-1.5,7.6-4.6,7.6-11.6s-6-12.9-11.8-14.1-11.7.3-15.3,4.2-4.2,6.6-4.4,11.5v1.8c-.1,1.1,2,1.9,4.5,1.9h.9c2.5,0,4.5-.8,4.5-1.9V67.3c.1-3.4,1-5.3,4.5-6a6.3,6.3,0,0,1,5.7,1.4,3.2,3.2,0,0,1,.9,2.7,4.1,4.1,0,0,1-1.7,3l-4.3,2.9a7.6,7.6,0,0,0-3.9,7.1v5.2L42.6,114.9c-7.4,4.6-5.9,12.3-5.2,14.6s3.3,8.8,13,8.8h94.8a12.6,12.6,0,0,0,12.5-8.9C159,124.7,157.6,118.1,152.4,115.1ZM147.3,126a2.3,2.3,0,0,1-2.2,1.7H50.3a2.3,2.3,0,0,1-2.3-1.6,2.2,2.2,0,0,1,1-2.5L97.6,93.2l48.8,30.5A2,2,0,0,1,147.3,126Z"/><path d="M97.5,186a91.3,91.3,0,1,1,91.3-91.2A91.4,91.4,0,0,1,97.5,186Zm0-173a81.8,81.8,0,1,0,81.7,81.8A81.9,81.9,0,0,0,97.5,13Z"/></svg>