<svg id="Layer_1" data-name="Layer 1" xmlns="http://www.w3.org/2000/svg" viewBox="0 0 192 192"><title>cycling_blk</title><circle cx="132.5" cy="37.2" r="15"/><path d="M91.5,95.5,114.1,75l4,8.5A14.1,14.1,0,0,0,131,91.7h17a8,8,0,1,0,0-15.9H132.1l-9.8-21.4-.6-1a15.1,15.1,0,0,0-1.8-2.6,14,14,0,0,0-19.8-.9L67.6,79.4a14,14,0,0,0-1,19.8l1.5,1.3h0L87,115.7v37a9,9,0,0,0,18,0V114.4a15.2,15.2,0,0,0-4.9-11.1Z"/><path d="M141.5,108.8A30.5,30.5,0,1,0,172,139.2,30.5,30.5,0,0,0,141.5,108.8Zm0,48.9A18.5,18.5,0,1,1,160,139.2,18.5,18.5,0,0,1,141.5,157.7Z"/><path d="M50.5,108.8A30.5,30.5,0,1,0,81,139.2,30.5,30.5,0,0,0,50.5,108.8Zm0,48.9A18.5,18.5,0,1,1,69,139.2,18.5,18.5,0,0,1,50.5,157.7Z"/></svg>