<svg id="Layer_1" data-name="Layer 1" xmlns="http://www.w3.org/2000/svg" viewBox="0 0 192 192"><title>extra-clothes_blk</title><path d="M96.5,39.2c9.8,0,14.6-6.5,16.9-11.6l-34.3-.3h-.2C80.8,32.4,85.5,39.2,96.5,39.2Z"/><path d="M170,46.3,146.2,35.1a56.7,56.7,0,0,0-10.7-3.8l-8.2-2a53.5,53.5,0,0,0-5.5-1.1c-3.1,8.4-10.7,19-25.3,19S73.2,36.4,70.6,27.9a48.4,48.4,0,0,0-6.4,1.3l-8.1,2.2a63.2,63.2,0,0,0-9.8,3.5L22,46.3a3.3,3.3,0,0,0-1.5,4.4L32.8,75.3A3.3,3.3,0,0,0,36.6,77L51,72.7v88.1a3.9,3.9,0,0,0,3.9,3.9h82.2a3.8,3.8,0,0,0,3.9-3.9V72.7l13.4,5a3.1,3.1,0,0,0,3.9-1.5l13.2-25.5A3.2,3.2,0,0,0,170,46.3Z"/></svg>