<svg id="Layer_1" data-name="Layer 1" xmlns="http://www.w3.org/2000/svg" viewBox="0 0 192 192"><title>group-exercise_red</title><circle cx="35.3" cy="68.8" r="14.8" transform="translate(-14.9 9.9) rotate(-13.3)" fill="#da1a32"/><path d="M171.7,161.7c-2.2-9.2-8-32.7-9.8-40.1a20.3,20.3,0,0,1-.7-4.3c-.9-11.3-4.7-38.8-21.9-57.6h0l-.3-.4-.2-.2h0l-2.8-3h0a126.1,126.1,0,0,0-34.3-26.2,7.7,7.7,0,0,0-10.2,3,7.3,7.3,0,0,0,3.1,10,109.3,109.3,0,0,1,33.3,26.4L113,83.2h0l-.3.3h0l-3.3,3.2h0c-6.6,6.5-13.6,16-9.8,24.2,2.8,6.3,9.7,8,17.2,8a63.6,63.6,0,0,0,8.7-.6h0a21.7,21.7,0,0,1-.5,6.7l-9,36.7a7.5,7.5,0,0,0,5.1,9.2,7.4,7.4,0,0,0,9.2-5.4l10.6-43.2h6l10.5,43.2a7.4,7.4,0,0,0,9.2,5.4A7.6,7.6,0,0,0,171.7,161.7Zm-57.5-57.6a47.2,47.2,0,0,1,6.3-7.5,66.7,66.7,0,0,1,2.3,7.2A46.1,46.1,0,0,1,114.2,104.1Z" fill="#da1a32"/><circle cx="96.3" cy="68.8" r="14.8" transform="translate(-13.2 24) rotate(-13.3)" fill="#da1a32"/><path d="M108.2,159.9l1.1-4.1c-2.5-9.9-6.1-24.7-7.9-32a19.3,19.3,0,0,1-9.1-9.6c-2.4-5.1-3.2-12.8,2.9-22.6A22.8,22.8,0,0,1,73.5,68.8a23.2,23.2,0,0,1,2.9-11.1L75,56.1h0A126.1,126.1,0,0,0,40.7,29.9a7.7,7.7,0,0,0-10.2,3,7.3,7.3,0,0,0,3.1,10A109.3,109.3,0,0,1,66.9,69.3L52,83.2h0l-.3.3h0l-3.3,3.2h0c-6.6,6.5-13.6,16-9.8,24.2,2.8,6.3,9.7,8,17.2,8a63.6,63.6,0,0,0,8.7-.6c.1.7.1,1.4.2,2a18.4,18.4,0,0,1-.3,3.3L55,161.8a7.5,7.5,0,0,0,5.1,9.2,7.4,7.4,0,0,0,9.2-5.4l10.6-43.2h6l10.5,43.2a7.4,7.4,0,0,0,9.2,5.4,7.1,7.1,0,0,0,3.1-1.9A16.5,16.5,0,0,1,108.2,159.9Zm-55-55.8a47.2,47.2,0,0,1,6.3-7.5,66.7,66.7,0,0,1,2.3,7.2A46.1,46.1,0,0,1,53.2,104.1Z" fill="#da1a32"/><path d="M92.5,83.1A80.1,80.1,0,0,0,82.2,64.4a13.1,13.1,0,0,0-.7,4.4A14.8,14.8,0,0,0,92.5,83.1Z" fill="#da1a32"/><path d="M98.6,104.7a11.6,11.6,0,0,0,.9,6.1C99.3,109,99,106.9,98.6,104.7Z" fill="#da1a32"/></svg>