<svg id="Layer_1" data-name="Layer 1" xmlns="http://www.w3.org/2000/svg" viewBox="0 0 192 192"><title>shoes_blk</title><path d="M182.9,120.6c-7.2,7.9-21.9,15-37.4,15-8.4,0-31.1-.7-55.1-1.5s-48.4-1.5-57.3-1.5c-13.7,0-19.3-.5-23.5-3a39.2,39.2,0,0,0,.6,4c2,11.9,14.9,7.9,21.9,7.9s94.5,4,105.5,4,19.9,0,30.8-4.9,14.9-11,14.9-17A11.3,11.3,0,0,0,182.9,120.6Z"/><path d="M33.1,124.6c17.9,0,95.5,3,112.4,3s31.9-9.9,33.8-15.9,2-11.9-2.9-15.9-2-5-19.9-8-9-2-17-5a71.3,71.3,0,0,1-6.7-3l.2-.3c1.1-2.5-.3-5.5-3.1-6.8s-6.1-.3-7.3,2.2h0l-5.4-2.7c.9-2.4-.5-5.4-3.2-6.6a5.6,5.6,0,0,0-7,1.7l-5-2.5c0-.1.1-.2.2-.3,1.1-2.5-.3-5.6-3.2-6.9s-6-.3-7.2,2.2L65.9,47a5.3,5.3,0,0,0-6.6,1.7l-6.4,8.8a6.7,6.7,0,0,0,1.6,9.3L59,69.9s-1,4-14,3S30.1,64.9,29.1,61s-7-4-10.9-2S8.7,77.9,8.7,96.3c0,11.9-.5,21.4,2.5,24.4S15.2,124.6,33.1,124.6Zm74.6-40.8,11,3L90.8,112.7H75.9ZM88.8,76.9l10,3L64.5,111.8l-15.5.9Z"/></svg>