<svg id="Layer_1" data-name="Layer 1" xmlns="http://www.w3.org/2000/svg" viewBox="0 0 192 192"><title>free-weights_red</title><path d="M180.4,80.9c-1.6,0-3,1.7-3,3.8v22.6c0,2.1,1.4,3.8,3,3.8s3-1.7,3-3.8V84.7C183.4,82.6,182.1,80.9,180.4,80.9Z" fill="#da1a32"/><path d="M11.6,80.9c-1.7,0-3,1.7-3,3.8v22.6c0,2.1,1.3,3.8,3,3.8s3-1.7,3-3.8V84.7C14.6,82.6,13.2,80.9,11.6,80.9Z" fill="#da1a32"/><path d="M48.6,46.6c-5.5,0-10,5.1-10,11.4v76c0,6.3,4.5,11.4,10,11.4s10.1-5.1,10.1-11.4V105.2h73V134c0,6.3,4.5,11.4,10.1,11.4s10-5.1,10-11.4V58c0-6.3-4.5-11.4-10-11.4S131.7,51.7,131.7,58V86.8h-73V58C58.7,51.7,54.2,46.6,48.6,46.6Z" fill="#da1a32"/><path d="M165.1,61.8h-1a7.6,7.6,0,0,0-7.6,7.5v53.4a7.6,7.6,0,0,0,7.6,7.5h1a7.6,7.6,0,0,0,7.6-7.5V69.4A7.6,7.6,0,0,0,165.1,61.8Z" fill="#da1a32"/><path d="M26.8,61.8h-1a7.6,7.6,0,0,0-7.6,7.5v53.4a7.6,7.6,0,0,0,7.6,7.5h1a7.6,7.6,0,0,0,7.6-7.5V69.4A7.6,7.6,0,0,0,26.8,61.8Z" fill="#da1a32"/></svg>