<svg id="Layer_1" data-name="Layer 1" xmlns="http://www.w3.org/2000/svg" viewBox="0 0 192 192"><title>towel_blk</title><path d="M162.3,80.4,100.5,57V55.1A17.8,17.8,0,1,0,78.2,37.8a4.5,4.5,0,1,0,8.9,0A8.9,8.9,0,1,1,96,46.7a4.5,4.5,0,0,0-4.5,4.5V57L29.7,80.4a15,15,0,0,0,5.3,29H64.8V91.5a8.9,8.9,0,0,0-17.8,0v9H35a6.1,6.1,0,0,1-6.1-6.1,6.2,6.2,0,0,1,3.9-5.7L91.5,66.8v2.5a4.5,4.5,0,0,0,9,0V66.8l58.7,21.9a6.2,6.2,0,0,1,3.9,5.7,6.1,6.1,0,0,1-6.1,6.1H145V96a13.4,13.4,0,0,0-13.4-13.4H71.3a18.2,18.2,0,0,1,2.4,8.9v53.8H145V109.4h12a15,15,0,0,0,5.3-29Z"/><path d="M73.7,167.5a4.5,4.5,0,0,0,4.5,4.5h62.3a4.5,4.5,0,0,0,4.5-4.5V154.2H73.7Z"/><rect x="47" y="117.5" width="17.8" height="24.25"/></svg>