<svg id="Layer_1" data-name="Layer 1" xmlns="http://www.w3.org/2000/svg" viewBox="0 0 192 192"><title>we-care_red</title><path d="M145.7,35a68.6,68.6,0,0,1,9.4,15.2l15.4-13.5L156.1,20,142.6,31.6Z" fill="#da1a32"/><path d="M75.6,65.7l-19,18,25.8,29.9,33.1-28.9a1.9,1.9,0,0,1,.2-.8c1.4-7.9-.2-15-4.4-20a19,19,0,0,0-2.9-2.8L87.8,78.8Z" fill="#da1a32"/><path d="M158.2,156.1l-26.5-31.2-1.9-2.2,1.8-2.4a72.1,72.1,0,0,0,14-31.2c3-16.8-.9-32.7-11-44.8S110.1,26,93.5,26C59.6,26,28.4,52.5,22.4,86.4c-3,16.8,1,32.7,11,44.8s24.5,18.3,41.1,18.3a69.4,69.4,0,0,0,35-9.8l2.6-1.5,2,2.4,26,31.4ZM74.5,133.5c-11.8,0-22-4.4-28.9-12.6s-9.7-19.6-7.5-31.8C42.6,63.6,68,41.9,93.5,41.9c11.8,0,22.1,4.5,28.9,12.7s9.7,19.6,7.5,31.8C125.4,111.9,100,133.5,74.5,133.5Z" fill="#da1a32"/></svg>